<svg width="167.3686737060547px" height="129.44000549316405px" xmlns="http://www.w3.org/2000/svg" viewBox="166.31566314697267 10.279997253417974 167.3686737060547 129.44000549316405" style="background: rgb(253, 253, 253);" preserveAspectRatio="xMidYMid"><defs><filter id="editing-extrusion" x="-100%" y="-100%" width="300%" height="300%"><feFlood result="color1" flood-color="#bbcedd"></feFlood><feConvolveMatrix order="6,6" divisor="1" kernelMatrix="1 0 0 0 0 0 0 1 0 0 0 0 0 0 1 0 0 0 0 0 0 1 0 0 0 0 0 0 1 0 0 0 0 0 0 1" in="SourceAlpha" result="extrude"></feConvolveMatrix><feComposite in="color1" in2="extrude" result="comp-extrude" operator="in"></feComposite><feOffset dx="3" dy="3" in="comp-extrude" result="offset-extrude"></feOffset><feMerge><feMergeNode in="offset-extrude"></feMergeNode><feMergeNode in="SourceGraphic"></feMergeNode></feMerge></filter></defs><g filter="url(#editing-extrusion)"><g transform="translate(193.78320360183716, 105.81499862670898)"><path d="M4.86-1.60L4.86-1.60L4.86-45.25L4.86-45.25Q4.86-45.89 5.41-46.34L5.41-46.34L5.41-46.34Q5.95-46.78 6.78-46.78L6.78-46.78L18.11-46.78L18.11-46.78Q24.19-46.78 27.84-43.49L27.84-43.49L27.84-43.49Q31.49-40.19 31.49-33.15L31.49-33.15L31.49-13.70L31.49-13.70Q31.49-6.59 27.84-3.30L27.84-3.30L27.84-3.30Q24.19 0 18.11 0L18.11 0L6.78 0L6.78 0Q5.95 0 5.41-0.48L5.41-0.48L5.41-0.48Q4.86-0.96 4.86-1.60ZM9.09-42.88L9.09-3.90L18.11-3.90L18.11-3.90Q22.46-3.90 24.86-6.37L24.86-6.37L24.86-6.37Q27.26-8.83 27.26-13.70L27.26-13.70L27.26-33.15L27.26-33.15Q27.26-38.02 24.86-40.45L24.86-40.45L24.86-40.45Q22.46-42.88 18.11-42.88L18.11-42.88L9.09-42.88ZM39.49-40.03L39.49-40.03L39.49-40.03Q38.66-40.83 38.66-41.92L38.66-41.92L38.66-41.92Q38.66-43.01 39.49-43.78L39.49-43.78L39.49-43.78Q40.32-44.54 41.54-44.54L41.54-44.54L41.54-44.54Q42.69-44.54 43.49-43.78L43.49-43.78L43.49-43.78Q44.29-43.01 44.29-41.92L44.29-41.92L44.29-41.92Q44.29-40.83 43.49-40.03L43.49-40.03L43.49-40.03Q42.69-39.23 41.54-39.23L41.54-39.23L41.54-39.23Q40.32-39.23 39.49-40.03ZM39.49-1.66L39.49-1.66L39.49-28.74L39.49-28.74Q39.49-29.38 40.06-29.82L40.06-29.82L40.06-29.82Q40.64-30.27 41.54-30.27L41.54-30.27L41.54-30.27Q42.43-30.27 43.04-29.82L43.04-29.82L43.04-29.82Q43.65-29.38 43.65-28.74L43.65-28.74L43.65-1.66L43.65-1.66Q43.65-1.02 43.01-0.51L43.01-0.51L43.01-0.51Q42.37 0 41.54 0L41.54 0L41.54 0Q40.70 0 40.10-0.51L40.10-0.51L40.10-0.51Q39.49-1.02 39.49-1.66ZM51.71-1.66L51.71-1.66L51.71-28.74L51.71-28.74Q51.71-29.44 52.29-29.86L52.29-29.86L52.29-29.86Q52.86-30.27 53.76-30.27L53.76-30.27L53.76-30.27Q54.53-30.27 55.10-29.82L55.10-29.82L55.10-29.82Q55.68-29.38 55.68-28.74L55.68-28.74L55.68-25.79L55.68-25.79Q56.77-27.84 59.01-29.25L59.01-29.25L59.01-29.25Q61.25-30.66 64.26-30.66L64.26-30.66L64.26-30.66Q68.86-30.66 72.26-27.14L72.26-27.14L72.26-27.14Q75.65-23.62 75.65-18.69L75.65-18.69L75.65-1.66L75.65-1.66Q75.65-0.90 75.01-0.45L75.01-0.45L75.01-0.45Q74.37 0 73.54 0L73.54 0L73.54 0Q72.77 0 72.13-0.45L72.13-0.45L72.13-0.45Q71.49-0.90 71.49-1.66L71.49-1.66L71.49-18.69L71.49-18.69Q71.49-21.82 69.12-24.32L69.12-24.32L69.12-24.32Q66.75-26.82 63.49-26.82L63.49-26.82L63.49-26.82Q60.48-26.82 58.18-24.58L58.18-24.58L58.18-24.58Q55.87-22.34 55.87-18.69L55.87-18.69L55.87-1.66L55.87-1.66Q55.87-1.02 55.23-0.51L55.23-0.51L55.23-0.51Q54.59 0 53.76 0L53.76 0L53.76 0Q52.86 0 52.29-0.51L52.29-0.51L52.29-0.51Q51.71-1.02 51.71-1.66ZM81.02 6.34L81.02 6.34L81.02 6.34Q81.02 1.54 86.46-0.64L86.46-0.64L86.46-0.64Q82.94-1.86 82.94-5.06L82.94-5.06L82.94-5.06Q82.94-7.94 86.14-9.66L86.14-9.66L86.14-9.66Q82.62-12.61 82.62-17.73L82.62-17.73L82.62-20.16L82.62-20.16Q82.62-24.83 85.66-27.74L85.66-27.74L85.66-27.74Q88.70-30.66 93.63-30.66L93.63-30.66L93.63-30.66Q98.11-30.66 101.12-27.97L101.12-27.97L101.12-27.97Q102.08-29.82 103.30-30.91L103.30-30.91L103.30-30.91Q104.51-32 105.66-32L105.66-32L105.66-32Q106.56-32 107.07-31.49L107.07-31.49L107.07-31.49Q107.58-30.98 107.58-30.34L107.58-30.34L107.58-30.34Q107.58-29.18 106.50-28.93L106.50-28.93L106.50-28.93Q104.26-28.48 102.91-26.18L102.91-26.18L102.91-26.18Q104.70-23.81 104.70-20.16L104.70-20.16L104.70-17.73L104.70-17.73Q104.70-13.12 101.57-10.11L101.57-10.11L101.57-10.11Q98.43-7.10 93.57-7.10L93.57-7.10L93.57-7.10Q90.94-7.10 88.64-8.19L88.64-8.19L88.64-8.19Q86.66-7.10 86.66-5.70L86.66-5.70L86.66-5.70Q86.66-4.35 88.13-3.65L88.13-3.65L88.13-3.65Q89.60-2.94 91.81-2.75L91.81-2.75L91.81-2.75Q94.02-2.56 96.61-2.14L96.61-2.14L96.61-2.14Q99.20-1.73 101.41-1.09L101.41-1.09L101.41-1.09Q103.62-0.45 105.09 1.28L105.09 1.28L105.09 1.28Q106.56 3.01 106.56 5.76L106.56 5.76L106.56 5.76Q106.56 10.11 103.10 12.48L103.10 12.48L103.10 12.48Q99.65 14.85 94.02 14.85L94.02 14.85L94.02 14.85Q88.26 14.85 84.64 12.54L84.64 12.54L84.64 12.54Q81.02 10.24 81.02 6.34ZM85.06 5.95L85.06 5.95L85.06 5.95Q85.06 8.58 87.46 10.18L87.46 10.18L87.46 10.18Q89.86 11.78 93.95 11.78L93.95 11.78L93.95 11.78Q97.98 11.78 100.26 10.18L100.26 10.18L100.26 10.18Q102.53 8.58 102.53 5.89L102.53 5.89L102.53 5.89Q102.53 4.61 101.89 3.65L101.89 3.65L101.89 3.65Q101.25 2.69 100.38 2.18L100.38 2.18L100.38 2.18Q99.52 1.66 98.11 1.28L98.11 1.28L98.11 1.28Q96.70 0.90 95.65 0.77L95.65 0.77L95.65 0.77Q94.59 0.64 92.99 0.51L92.99 0.51L90.75 0.26L90.75 0.26Q85.06 2.05 85.06 5.95ZM86.66-20.16L86.66-17.79L86.66-17.79Q86.66-14.46 88.54-12.35L88.54-12.35L88.54-12.35Q90.43-10.24 93.70-10.24L93.70-10.24L93.70-10.24Q96.83-10.24 98.72-12.35L98.72-12.35L98.72-12.35Q100.61-14.46 100.61-17.73L100.61-17.73L100.61-20.16L100.61-20.16Q100.61-23.36 98.72-25.44L98.72-25.44L98.72-25.44Q96.83-27.52 93.63-27.52L93.63-27.52L93.63-27.52Q90.43-27.52 88.54-25.44L88.54-25.44L88.54-25.44Q86.66-23.36 86.66-20.16L86.66-20.16Z" fill="#0062bc"></path></g></g><style>text {
  font-size: 64px;
  font-family: Arial Black;
  dominant-baseline: central;
  text-anchor: middle;
}</style></svg>